# Blender 4.2.1 LTS
# www.blender.org
mtllib Tree_00.mtl
o tree01
v -116.526268 426.510529 -136.796570
v -130.833542 355.863190 -4.419600
v -13.225087 509.086456 -62.757305
v 77.136459 442.073517 -41.546272
v 29.581232 320.479370 -102.342331
v 8.196625 314.857880 8.631855
v -94.632278 240.807632 -66.196266
v -184.979935 307.489197 -87.425835
v 17.585335 441.089050 -148.364182
v -93.983856 319.718872 -155.371994
v -23.894104 405.169342 28.944187
v 49.465424 480.993622 24.172455
v 53.294128 420.687378 -38.603615
v -61.159458 454.781738 0.210080
v -84.044769 385.880951 49.509918
v 11.315745 370.648834 103.023163
v 9.392719 316.189850 35.534138
v 115.749756 346.879395 57.272438
v 114.840576 423.727417 43.840382
v -32.988384 457.227753 82.561974
v -14.583433 373.450958 -4.194346
v 89.902451 342.227325 -21.743959
v 113.478630 309.693878 75.339279
v 101.681961 239.902771 66.960564
v 54.164730 303.082794 1.375425
v -12.977040 302.059143 26.755795
v 5.277364 308.281708 114.983551
v -4.279101 239.743652 99.305046
v 56.348198 248.128433 168.365616
v 123.429665 249.118332 143.181747
v 41.137657 348.868927 54.354572
v 86.048615 310.077393 139.113617
v 68.077934 202.784943 118.912781
v 30.782089 249.660141 51.273285
v -90.520821 257.871979 38.657417
v -97.267891 198.503174 30.922056
v -17.649317 230.797913 18.387287
v -13.923060 230.432480 -42.178406
v -83.532860 257.186676 -58.505936
v -85.358299 197.335205 -61.960110
v -154.633728 224.824295 -38.941223
v -158.492462 225.202728 21.509218
v -41.172264 278.989838 -8.980697
v -128.122940 270.634186 -4.552779
v -133.161942 177.696747 -13.784069
v -59.428043 197.136169 -18.088417
v -8.029462 210.837723 10.151394
v -10.609704 207.462265 18.558371
v -3.637890 202.000656 21.766680
v 3.251170 202.000656 15.342548
v 0.537029 207.462265 8.163909
v 38.387291 249.337738 59.927433
v 36.671429 247.093063 65.518074
v 41.307686 243.461090 67.651604
v 45.888912 243.461090 63.379551
v 44.084007 247.093063 58.605755
v 56.362488 318.590393 79.203537
v 54.646629 316.345734 84.794174
v 59.282887 312.713745 86.927696
v 63.864109 312.713745 82.655655
v 62.059204 316.345734 77.881859
v -39.461967 417.506561 -13.897127
v -37.823875 418.263947 -19.451445
v -43.750538 415.523712 -17.329882
v -16.911322 -0.000001 -10.989643
v -43.750538 415.523712 -10.464372
v 3.992222 0.000001 17.781616
v -6.591757 129.390991 -0.000010
v -10.980521 126.015533 -7.620615
v -18.081692 120.553925 -4.709802
v -18.081692 120.553925 4.709784
v -10.980521 126.015533 7.620595
v -34.160999 419.957520 -13.897127
v -37.823875 418.263947 -8.342812
v -9.434379 124.972458 12.927225
v 18.044416 269.234009 22.079872
v 11.845574 269.234009 13.547898
v -74.651794 167.891006 -0.000013
v -77.570328 165.646332 -5.067714
v -82.292603 162.014359 -3.132024
v -82.292603 162.014359 3.132000
v -77.570328 165.646332 5.067689
v -101.008507 237.143661 -0.000018
v -103.927032 234.898987 -5.067719
v -108.649307 231.267014 -3.132029
v -108.649307 231.267014 3.131994
v -103.927032 234.898987 5.067684
v 1.815636 269.234009 16.806822
v 16.911322 0.000000 0.000000
v 3.992222 -0.000001 -17.781616
v 1.815636 269.234009 27.352922
v -16.911322 0.000001 10.989643
v 11.845574 269.234009 30.611847
v -0.042193 124.972458 -0.000009
v -9.434379 124.972458 -12.927244
v -24.631254 124.972458 -7.989480
v -24.631254 124.972458 7.989461
vn -0.6097 0.7927 -0.0000
vn 0.4158 0.7927 0.4459
vn -0.1011 0.1497 -0.9835
vn -0.1373 0.7510 -0.6459
vn 0.6099 0.7127 -0.3466
vn 0.8696 -0.0982 -0.4839
vn 0.3781 -0.2970 -0.8768
vn 0.2772 -0.7205 -0.6356
vn -0.3678 -0.6951 -0.6177
vn -0.5994 0.0127 -0.8004
vn 0.8928 -0.4245 0.1505
vn -0.4781 0.6082 0.6336
vn 0.2858 0.6174 0.7329
vn 0.5680 0.0168 0.8229
vn -0.1695 -0.2732 0.9469
vn -0.2295 -0.5155 0.8256
vn -0.5411 -0.5236 0.6581
vn 0.5520 -0.8314 0.0642
vn -0.8087 0.5508 0.2065
vn -0.7117 0.6488 0.2693
vn 0.3273 0.6189 0.7141
vn -0.2412 0.9690 0.0537
vn -0.8377 0.4732 0.2725
vn -0.4946 -0.0480 0.8678
vn 0.3127 0.3670 0.8761
vn 0.4265 0.1606 0.8901
vn 0.0965 -0.7759 0.6234
vn -0.4329 -0.6955 0.5735
vn -0.2474 -0.3125 -0.9171
vn -0.3585 -0.1554 -0.9205
vn -0.6153 -0.3132 -0.7234
vn -0.5465 -0.6197 -0.5634
vn -0.3074 -0.6260 -0.7167
vn 0.2839 -0.9582 -0.0365
vn 0.9503 -0.0427 -0.3083
vn 0.7747 0.2353 -0.5870
vn 0.6495 0.5677 -0.5058
vn -0.0205 0.7204 -0.6933
vn 0.4279 0.8860 0.1787
vn 0.5213 0.7049 -0.4810
vn -0.2628 0.6971 -0.6671
vn -0.6771 0.7305 0.0886
vn -0.1627 0.8617 0.4806
vn -0.2565 0.5105 0.8207
vn 0.3354 0.2660 0.9038
vn 0.7922 0.5083 0.3377
vn 0.0146 -0.8180 -0.5750
vn 0.0626 -0.6957 -0.7156
vn -0.2782 -0.5878 -0.7597
vn -0.5203 -0.6777 -0.5197
vn -0.3235 -0.8518 -0.4120
vn -0.4961 -0.6954 0.5199
vn 0.2671 -0.6779 0.6849
vn 0.6641 -0.7410 -0.0999
vn 0.9574 -0.1309 -0.2573
vn 0.7813 -0.0575 -0.6214
vn -0.9764 0.0914 0.1956
vn -0.7478 -0.0472 0.6622
vn -0.0728 0.9375 0.3402
vn 0.4127 0.5937 0.6907
vn 0.8856 0.4616 0.0517
vn 0.4024 0.6597 -0.6347
vn -0.1068 0.9405 -0.3227
vn -0.4662 0.6876 -0.5566
vn -0.8449 0.5319 -0.0573
vn -0.4648 0.6534 0.5975
vn 0.2606 -0.9383 0.2274
vn 0.3990 -0.8548 0.3319
vn 0.6044 -0.7956 0.0420
vn 0.4663 -0.8394 -0.2794
vn 0.2440 -0.9583 -0.1486
vn -0.4539 -0.5717 -0.6835
vn -0.8973 -0.4380 -0.0545
vn -0.3904 -0.6740 0.6271
vn -0.1956 -0.1048 0.9751
vn 0.2128 -0.1500 0.9655
vn 0.2457 0.0484 -0.9681
vn -0.2917 0.0640 -0.9544
vn -0.3090 0.0037 0.9510
vn 0.8042 0.1091 0.5843
vn 0.8090 -0.0115 -0.5877
vn -0.3018 0.2150 -0.9288
vn -0.9836 0.1803 -0.0000
vn -0.3082 -0.0708 0.9487
vn 0.7946 -0.1880 0.5773
vn 0.8012 0.1386 -0.5821
vn -0.2949 -0.2992 -0.9075
vn -0.9548 -0.2974 -0.0000
vn -0.3058 0.1441 0.9411
vn 0.7450 0.3898 0.5413
vn 0.8223 -0.2580 -0.5072
vn 0.1276 0.7234 -0.6785
vn -0.6858 0.7234 0.0800
vn -0.5633 -0.2580 0.7849
vn 0.3699 -0.8401 0.3967
vn 0.8974 -0.1143 -0.4262
vn -0.1055 0.2920 -0.9506
vn -0.9409 0.2920 -0.1716
vn -0.4878 -0.1143 0.8654
vn 0.6374 -0.3557 0.6835
vn -0.1899 -0.2580 0.9473
vn 0.4092 0.7234 0.5561
vn 0.4092 0.7234 -0.5561
vn -0.1899 -0.2580 -0.9473
vn -0.5424 -0.8401 -0.0000
vn -0.3003 -0.1143 0.9470
vn 0.7672 0.2920 0.5711
vn 0.7672 0.2920 -0.5711
vn -0.3003 -0.1143 -0.9470
vn -0.9346 -0.3557 -0.0000
vn -0.4197 0.9077 -0.0000
vn 0.8042 0.1091 -0.5843
vn -0.3090 0.0037 -0.9510
vn -0.9981 -0.0617 -0.0000
vn 0.8061 0.1414 -0.5747
vn -0.2049 -0.2825 -0.9371
vn -0.3825 0.1178 0.9164
vn 0.7114 0.3865 0.5870
vt 0.258189 0.270348
vt 0.260322 0.266347
vt 0.256056 0.266347
vt 0.204254 0.325810
vt 0.200447 0.324282
vt 0.198995 0.321809
vt 0.376059 0.753888
vt 0.360848 0.754580
vt 0.390008 0.674721
vt 0.302182 0.804373
vt 0.274532 0.748044
vt 0.331140 0.664499
vt 0.329920 0.614934
vt 0.357595 0.671021
vt 0.255924 0.659216
vt 0.287153 0.700078
vt 0.262963 0.727751
vt 0.625056 0.847628
vt 0.582196 0.830183
vt 0.610619 0.805592
vt 0.642645 0.828387
vt 0.606457 0.777811
vt 0.567176 0.766631
vt 0.600759 0.749183
vt 0.616716 0.726656
vt 0.671136 0.803361
vt 0.658760 0.745768
vt 0.645878 0.768687
vt 0.229116 0.662157
vt 0.244519 0.690913
vt 0.182303 0.662439
vt 0.283408 0.657304
vt 0.264778 0.656553
vt 0.200016 0.661121
vt 0.160831 0.616966
vt 0.179317 0.617693
vt 0.235266 0.610928
vt 0.197131 0.583682
vt 0.246781 0.618090
vt 0.211524 0.610811
vt 0.614423 0.683848
vt 0.649391 0.699350
vt 0.646141 0.693216
vt 0.629302 0.663975
vt 0.673760 0.663707
vt 0.685745 0.683345
vt 0.671383 0.659590
vt 0.627011 0.659868
vt 0.620101 0.640269
vt 0.652917 0.624997
vt 0.656077 0.639266
vt 0.688280 0.639412
vt 0.249386 0.193964
vt 0.250705 0.108863
vt 0.246080 0.108863
vt 0.258189 0.193964
vt 0.258189 0.108863
vt 0.248963 0.292201
vt 0.266992 0.193964
vt 0.246744 0.292201
vt 0.263629 0.193964
vt 0.252748 0.193964
vt 0.239563 0.292201
vt 0.243153 0.292201
vt 0.267652 0.394837
vt 0.271434 0.393684
vt 0.265315 0.391818
vt 0.263870 0.393684
vt 0.237343 0.292201
vt 0.218281 0.277124
vt 0.247741 0.246418
vt 0.252630 0.250137
vt 0.217381 0.278652
vt 0.251276 0.252435
vt 0.245551 0.250137
vt 0.243367 0.246418
vt 0.213574 0.277124
vt 0.212121 0.274650
vt 0.201904 0.321809
vt 0.215030 0.274650
vt 0.205154 0.324282
vt 0.254738 0.221662
vt 0.254982 0.190956
vt 0.253000 0.194675
vt 0.258189 0.223190
vt 0.258189 0.196973
vt 0.263378 0.194675
vt 0.261396 0.190956
vt 0.261640 0.221662
vt 0.256056 0.219188
vt 0.254738 0.268820
vt 0.261640 0.268820
vt 0.260322 0.219188
vt 0.267652 0.393168
vt 0.269990 0.391818
vt 0.270297 0.108863
vt 0.265672 0.108863
s 0
usemtl Mat
f 83/1/1 85/2/1 86/3/1
f 57/4/2 58/5/2 59/6/2
f 1/7/3 9/8/3 10/9/3
f 1/7/4 3/10/4 9/8/4
f 3/10/5 4/11/5 9/8/5
f 4/11/6 5/12/6 9/8/6
f 5/12/7 10/9/7 9/8/7
f 7/13/8 10/9/8 5/12/8
f 8/14/9 10/9/9 7/13/9
f 8/14/10 1/7/10 10/9/10
f 4/11/11 6/15/11 5/12/11
f 2/16/12 11/17/12 3/10/12
f 11/17/13 4/11/13 3/10/13
f 11/17/14 6/15/14 4/11/14
f 11/17/15 2/16/15 6/15/15
f 2/16/16 7/13/16 6/15/16
f 2/16/17 8/14/17 7/13/17
f 6/15/18 7/13/18 5/12/18
f 1/7/19 8/14/19 2/16/19
f 1/7/20 2/16/20 3/10/20
f 12/18/21 20/19/21 19/20/21
f 12/18/22 14/21/22 20/19/22
f 14/21/23 15/22/23 20/19/23
f 15/22/24 16/23/24 20/19/24
f 16/23/25 19/20/25 20/19/25
f 18/24/26 19/20/26 16/23/26
f 17/25/27 18/24/27 16/23/27
f 15/22/28 17/25/28 16/23/28
f 13/26/29 22/27/29 21/28/29
f 13/26/30 21/28/30 14/21/30
f 21/28/31 15/22/31 14/21/31
f 21/28/32 17/25/32 15/22/32
f 21/28/33 22/27/33 17/25/33
f 22/27/34 18/24/34 17/25/34
f 22/27/35 19/20/35 18/24/35
f 22/27/36 13/26/36 19/20/36
f 12/18/37 19/20/37 13/26/37
f 12/18/38 13/26/38 14/21/38
f 23/29/39 31/30/39 32/31/39
f 23/29/40 25/32/40 31/30/40
f 25/32/41 26/33/41 31/30/41
f 26/33/42 27/34/42 31/30/42
f 27/34/43 32/31/43 31/30/43
f 29/35/44 32/31/44 27/34/44
f 30/36/45 32/31/45 29/35/45
f 30/36/46 23/29/46 32/31/46
f 24/37/47 33/38/47 34/39/47
f 24/37/48 34/39/48 25/32/48
f 34/39/49 26/33/49 25/32/49
f 34/39/50 28/40/50 26/33/50
f 34/39/51 33/38/51 28/40/51
f 33/38/52 29/35/52 28/40/52
f 33/38/53 30/36/53 29/35/53
f 33/38/54 24/37/54 30/36/54
f 23/29/55 30/36/55 24/37/55
f 23/29/56 24/37/56 25/32/56
f 26/33/57 28/40/57 27/34/57
f 28/40/58 29/35/58 27/34/58
f 35/41/59 43/42/59 44/43/59
f 35/41/60 37/44/60 43/42/60
f 37/44/61 38/45/61 43/42/61
f 38/45/62 39/46/62 43/42/62
f 39/46/63 44/43/63 43/42/63
f 41/47/64 44/43/64 39/46/64
f 42/48/65 44/43/65 41/47/65
f 42/48/66 35/41/66 44/43/66
f 36/49/67 45/50/67 46/51/67
f 36/49/68 46/51/68 37/44/68
f 46/51/69 38/45/69 37/44/69
f 46/51/70 40/52/70 38/45/70
f 46/51/71 45/50/71 40/52/71
f 45/50/72 41/47/72 40/52/72
f 45/50/73 42/48/73 41/47/73
f 45/50/74 36/49/74 42/48/74
f 35/41/75 42/48/75 36/49/75
f 35/41/76 36/49/76 37/44/76
f 38/45/77 40/52/77 39/46/77
f 40/52/78 41/47/78 39/46/78
f 75/53/79 92/54/79 67/55/79
f 94/56/80 67/55/80 89/57/80
f 77/58/81 94/56/81 95/59/81
f 88/60/82 95/59/82 96/61/82
f 97/62/83 88/60/83 96/61/83
f 75/53/84 91/63/84 97/62/84
f 76/64/85 75/53/85 94/56/85
f 77/58/86 73/65/86 76/64/86
f 88/60/87 63/66/87 77/58/87
f 66/67/88 88/60/88 91/63/88
f 74/68/89 91/63/89 93/69/89
f 76/64/90 74/68/90 93/69/90
f 56/70/91 50/71/91 51/72/91
f 52/73/92 51/72/92 47/74/92
f 48/75/93 52/73/93 47/74/93
f 49/76/94 53/77/94 48/75/94
f 50/71/95 54/78/95 49/76/95
f 56/70/96 60/79/96 55/80/96
f 52/73/97 61/81/97 56/70/97
f 58/5/98 52/73/98 53/77/98
f 59/6/99 53/77/99 54/78/99
f 60/79/100 54/78/100 55/80/100
f 82/82/101 71/83/101 72/84/101
f 78/85/102 72/84/102 68/86/102
f 69/87/103 78/85/103 68/86/103
f 70/88/104 79/89/104 69/87/104
f 81/90/105 70/88/105 71/83/105
f 82/82/106 86/3/106 81/90/106
f 78/85/107 87/91/107 82/82/107
f 84/92/108 78/85/108 79/89/108
f 85/2/109 79/89/109 80/93/109
f 86/3/110 80/93/110 81/90/110
f 63/66/111 62/94/111 73/65/111
f 64/95/111 62/94/111 63/66/111
f 66/67/111 62/94/111 64/95/111
f 74/68/111 62/94/111 66/67/111
f 73/65/111 62/94/111 74/68/111
f 90/96/112 94/56/112 89/57/112
f 65/97/113 95/59/113 90/96/113
f 97/62/114 65/97/114 92/54/114
f 86/3/1 87/91/1 83/1/1
f 83/1/1 84/92/1 85/2/1
f 60/79/2 61/81/2 59/6/2
f 61/81/2 57/4/2 59/6/2
f 75/53/79 97/62/79 92/54/79
f 94/56/80 75/53/80 67/55/80
f 77/58/81 76/64/81 94/56/81
f 88/60/82 77/58/82 95/59/82
f 97/62/83 91/63/83 88/60/83
f 75/53/84 93/69/84 91/63/84
f 76/64/85 93/69/85 75/53/85
f 77/58/115 63/66/115 73/65/115
f 88/60/116 64/95/116 63/66/116
f 66/67/88 64/95/88 88/60/88
f 74/68/117 66/67/117 91/63/117
f 76/64/118 73/65/118 74/68/118
f 56/70/91 55/80/91 50/71/91
f 52/73/92 56/70/92 51/72/92
f 48/75/93 53/77/93 52/73/93
f 49/76/94 54/78/94 53/77/94
f 50/71/95 55/80/95 54/78/95
f 56/70/96 61/81/96 60/79/96
f 52/73/97 57/4/97 61/81/97
f 58/5/98 57/4/98 52/73/98
f 59/6/99 58/5/99 53/77/99
f 60/79/100 59/6/100 54/78/100
f 82/82/101 81/90/101 71/83/101
f 78/85/102 82/82/102 72/84/102
f 69/87/103 79/89/103 78/85/103
f 70/88/104 80/93/104 79/89/104
f 81/90/105 80/93/105 70/88/105
f 82/82/106 87/91/106 86/3/106
f 78/85/107 83/1/107 87/91/107
f 84/92/108 83/1/108 78/85/108
f 85/2/109 84/92/109 79/89/109
f 86/3/110 85/2/110 80/93/110
f 90/96/112 95/59/112 94/56/112
f 65/97/113 96/61/113 95/59/113
f 97/62/114 96/61/114 65/97/114
